<svg xmlns="http://www.w3.org/2000/svg" viewBox="0 0 512 512">
  <defs>
    <linearGradient id="sky" x1="0" y1="0" x2="0" y2="1">
      <stop offset="0" stop-color="#070b1c"/>
      <stop offset="1" stop-color="#1b2548"/>
    </linearGradient>
    <radialGradient id="glow" cx="0.72" cy="0.5" r="0.5">
      <stop offset="0" stop-color="#ffe9b0" stop-opacity="0.9"/>
      <stop offset="1" stop-color="#ffe9b0" stop-opacity="0"/>
    </radialGradient>
  </defs>
  <rect width="512" height="512" rx="96" fill="url(#sky)"/>
  <rect width="512" height="512" rx="96" fill="url(#glow)"/>
  <!-- 海 -->
  <path d="M0 340 q64 -28 128 0 t128 0 t128 0 t128 0 V512 H0 Z" fill="#102444"/>
  <path d="M0 380 q64 -26 128 0 t128 0 t128 0 t128 0 V512 H0 Z" fill="#081427"/>
  <!-- 光的橋（四箭頭） -->
  <g fill="#fff" opacity="0.92">
    <path d="M150 250 l26 -26 v16 h26 v20 h-26 v16 z"/>
    <path d="M236 250 l-26 -26 h16 v-26 h20 v26 h16 z" transform="translate(0 26)"/>
    <path d="M300 224 l26 26 h-16 v26 h-20 v-26 h-16 z" transform="translate(0 -0)"/>
    <path d="M362 250 l-26 26 v-16 h-26 v-20 h26 v-16 z"/>
  </g>
</svg>
